<svg xmlns="http://www.w3.org/2000/svg" viewBox="0 0 64 64" width="512" height="512">
  <defs><clipPath id="tile"><rect width="64" height="64" rx="14"/></clipPath></defs>
  <g clip-path="url(#tile)">
    <rect width="64" height="64" fill="#1d201b"/>
    <g transform="translate(40 26) rotate(-7) scale(1.45)"><path d="M 0,-25 C 16,-24 27,-14 25,0 C 23,13 14,23 -1,23 C -15,23 -25,14 -25,-1 C -25,-15 -14,-26 0,-25" fill="none" stroke="#d9ded4" stroke-width="0.93" opacity=".26"/></g>
    <g transform="translate(40 26) rotate(5) scale(1)"><path d="M 0,-25 C 16,-24 27,-14 25,0 C 23,13 14,23 -1,23 C -15,23 -25,14 -25,-1 C -25,-15 -14,-26 0,-25" fill="none" stroke="#d9ded4" stroke-width="1.35" opacity=".42"/></g>
    <g transform="translate(40 26) rotate(-10) scale(.62)"><path d="M 0,-25 C 16,-24 27,-14 25,0 C 23,13 14,23 -1,23 C -15,23 -25,14 -25,-1 C -25,-15 -14,-26 0,-25" fill="none" stroke="#d9ded4" stroke-width="2.18" opacity=".62"/></g>
    <g transform="translate(40 26) rotate(8) scale(.3)"><path d="M 0,-25 C 16,-24 27,-14 25,0 C 23,13 14,23 -1,23 C -15,23 -25,14 -25,-1 C -25,-15 -14,-26 0,-25" fill="none" stroke="#d9ded4" stroke-width="4.5" opacity=".88"/></g>
    <circle cx="40.5" cy="25.6" r="2" fill="#c4612f"/>
  </g>
</svg>
